<?xml version="1.0" standalone="no"?>
<!DOCTYPE svg PUBLIC "-//W3C//DTD SVG 20010904//EN"
 "http://www.w3.org/TR/2001/REC-SVG-20010904/DTD/svg10.dtd">
<svg version="1.0" xmlns="http://www.w3.org/2000/svg"
 width="2048.000000pt" height="2048.000000pt" viewBox="0 0 2048.000000 2048.000000"
 preserveAspectRatio="xMidYMid meet">
<metadata>
Created by potrace 1.14, written by Peter Selinger 2001-2017
</metadata>
<g transform="translate(0.000000,2048.000000) scale(0.100000,-0.100000)"
fill="#000000" stroke="none">
<path d="M0 10240 l0 -10240 10240 0 10240 0 0 2965 0 2965 -62 0 c-91 0 -382
-22 -388 -30 -8 -10 -104 -29 -115 -22 -13 8 -78 3 -88 -7 -10 -10 -37 -136
-37 -173 0 -15 6 -42 14 -60 18 -41 59 -176 62 -203 5 -49 -32 -56 -144 -25
-48 13 -102 20 -165 20 -120 0 -195 14 -267 51 -65 33 -143 39 -176 14 -29
-22 -48 -18 -67 15 -11 18 -27 30 -40 31 -12 0 -31 3 -42 5 -11 2 -53 5 -94 5
-116 1 -160 26 -195 111 -31 74 -44 93 -75 108 -17 8 -31 20 -31 27 0 9 -33
13 -112 16 -71 2 -105 6 -92 11 15 5 20 14 17 27 -7 23 -18 26 -133 34 -52 3
-115 10 -140 15 -101 21 -242 31 -559 40 -183 5 -336 11 -339 14 -3 3 84 7
194 7 109 1 264 5 344 9 173 8 560 47 612 61 37 9 68 40 68 67 0 7 7 20 15 28
17 18 18 24 5 44 -8 13 -106 15 -762 18 l-753 3 -319 197 c-176 109 -323 205
-327 213 -4 8 -16 43 -28 79 -12 36 -111 304 -220 595 l-198 530 -1630 3
-1631 2 -10 -27 c-7 -16 -68 -181 -138 -368 -191 -515 -214 -577 -332 -895
-61 -162 -113 -303 -117 -313 -7 -16 -52 -17 -755 -17 l-747 0 -319 191 c-175
105 -322 196 -326 202 -3 6 -1 22 6 36 12 23 212 538 624 1606 107 277 671
1733 899 2320 166 427 1103 2849 1371 3542 l337 873 770 -1 770 0 304 -192
c168 -106 308 -200 313 -208 4 -7 60 -149 124 -314 64 -165 132 -340 151 -390
269 -692 666 -1714 1055 -2715 264 -679 543 -1397 620 -1595 77 -198 170 -439
208 -535 38 -96 174 -447 303 -780 560 -1441 765 -1960 785 -1982 16 -19 37
-25 27 -8 -4 6 0 29 9 53 8 23 17 77 21 120 3 43 11 89 17 102 18 39 71 65
133 65 41 0 56 4 64 18 10 16 11 15 12 -3 1 -13 4 -10 8 10 7 29 8 28 46 -47
22 -43 43 -74 50 -72 7 3 50 -9 96 -26 84 -31 106 -34 232 -30 73 2 115 -14
277 -107 47 -27 81 -38 125 -42 58 -6 60 -7 70 -41 15 -53 20 -57 85 -64 57
-7 86 -22 93 -51 1 -5 -18 -12 -42 -15 -51 -6 -59 -18 -34 -47 24 -27 50 -39
99 -47 33 -6 43 -4 47 8 8 21 41 20 63 -1 13 -13 46 -19 158 -25 77 -4 171
-12 208 -18 37 -5 83 -10 102 -10 l36 0 0 7255 0 7255 -10240 0 -10240 0 0
-10240z m15703 5879 c82 -27 146 -81 183 -156 24 -50 28 -70 29 -143 0 -78 -3
-89 -34 -143 -38 -65 -99 -120 -157 -140 -157 -56 -305 -2 -391 141 -26 43
-28 55 -28 147 0 88 3 105 24 140 53 88 113 135 202 159 74 20 98 19 172 -5z
m-9437 -219 c78 -27 145 -85 181 -158 38 -77 39 -192 4 -265 -33 -66 -97 -130
-172 -169 -58 -30 -72 -33 -154 -33 -76 0 -97 4 -139 25 -104 53 -157 133
-164 251 -6 103 14 162 79 234 111 120 234 159 365 115z m-3568 -35 c78 -36
118 -71 154 -134 31 -53 33 -61 33 -156 0 -85 -3 -106 -23 -143 -56 -104 -167
-172 -282 -172 -117 0 -214 57 -276 165 -27 46 -29 57 -29 150 1 91 3 104 29
148 40 67 81 106 151 138 80 38 166 40 243 4z m7741 -199 c98 -52 170 -157
179 -263 9 -118 -62 -243 -172 -301 -44 -23 -63 -27 -141 -27 -105 0 -152 19
-220 90 -66 67 -80 105 -80 215 0 80 4 102 23 140 41 78 106 133 192 161 42
14 181 4 219 -15z m8006 -68 c98 -51 175 -172 175 -278 0 -107 -61 -210 -161
-271 -47 -29 -63 -33 -138 -37 -81 -3 -89 -2 -151 30 -73 37 -142 113 -159
175 -16 55 -13 163 4 215 27 77 117 160 205 189 50 17 172 4 225 -23z m-16045
-528 c7 -27 15 -50 18 -50 33 0 189 -24 197 -30 6 -4 21 -11 35 -15 14 -4 662
-11 1440 -15 1510 -8 1486 -7 1875 -61 436 -60 889 -182 1260 -341 925 -395
1688 -951 2163 -1576 382 -501 635 -1131 746 -1857 52 -337 66 -897 32 -1235
-78 -772 -287 -1390 -659 -1950 -627 -944 -1668 -1532 -3007 -1699 -359 -45
-406 -46 -2070 -46 l-1585 0 -240 147 c-132 81 -273 167 -312 192 l-73 45 -2
3753 c-3 3716 -3 3753 -23 3750 -12 -3 -28 8 -45 28 -26 32 -27 32 -146 39
-137 8 -175 23 -204 81 -64 129 -66 133 -108 154 -37 19 -41 25 -42 59 0 28
-4 37 -17 38 -24 1 -150 15 -303 33 -76 9 -306 20 -585 26 -253 6 -464 12
-470 15 -5 2 123 4 285 5 441 3 910 30 1068 61 48 10 55 14 69 47 29 71 52
158 55 217 l3 60 -31 3 c-18 2 -40 12 -49 22 -16 17 -16 19 2 28 10 6 44 13
75 17 32 4 63 13 69 21 6 8 16 14 22 14 5 0 34 11 63 25 l52 25 97 -35 c64
-23 113 -35 148 -35 71 0 128 11 132 24 2 6 6 23 9 39 4 18 13 27 25 27 15 0
22 -12 31 -50z m-2212 -517 c-10 -2 -28 -2 -40 0 -13 2 -5 4 17 4 22 1 32 -1
23 -4z m11436 -984 c97 -48 176 -176 176 -285 0 -156 -75 -281 -204 -340 -51
-23 -67 -26 -135 -22 -43 3 -92 12 -113 22 -66 31 -126 93 -159 163 -29 60
-31 72 -27 142 10 169 99 300 229 340 59 18 178 8 233 -20z m6442 -659 c72
-25 141 -84 181 -155 25 -44 28 -61 28 -135 0 -75 -4 -92 -32 -150 -35 -72
-108 -152 -165 -181 -76 -39 -195 -41 -281 -6 -58 25 -121 91 -152 158 -24 55
-27 71 -23 143 3 66 10 92 34 136 36 67 119 151 171 172 21 9 49 20 63 26 40
17 112 14 176 -8z m-16615 -1474 c96 -29 161 -82 201 -165 34 -69 33 -206 -2
-275 -33 -64 -108 -130 -172 -152 -77 -25 -188 -16 -257 22 -95 51 -161 164
-161 274 0 128 85 245 210 287 76 26 117 28 181 9z m18119 -2065 c66 -34 137
-113 155 -174 32 -108 12 -226 -50 -303 -43 -52 -146 -119 -208 -135 -112 -28
-236 8 -307 89 -63 71 -75 105 -75 212 0 83 3 100 24 135 51 84 153 170 232
194 57 17 178 8 229 -18z m-5160 -2715 c67 -39 94 -65 130 -124 26 -43 34 -68
38 -122 5 -69 -12 -170 -29 -170 -5 0 -9 -6 -9 -13 0 -25 -67 -92 -121 -122
-49 -27 -62 -30 -149 -30 -87 0 -100 3 -149 30 -97 54 -151 141 -158 256 -5
68 -2 84 21 135 31 68 83 126 141 157 58 32 82 36 165 32 58 -2 85 -9 120 -29z
m5533 -1133 c4 -16 13 -59 22 -97 19 -85 17 -145 -7 -160 -30 -18 -42 8 -46
103 -5 95 4 181 17 181 5 0 11 -12 14 -27z m-17498 -108 c60 -36 97 -75 133
-140 23 -43 27 -62 27 -135 0 -73 -4 -92 -27 -136 -34 -65 -74 -105 -140 -141
-46 -25 -62 -28 -142 -28 -82 0 -96 3 -140 29 -70 41 -93 64 -129 126 -30 51
-32 61 -32 150 0 87 2 99 29 145 35 59 67 93 119 124 57 35 85 41 172 38 67
-3 88 -8 130 -32z m4129 -16 c89 -25 182 -121 207 -212 6 -23 9 -71 7 -107 -9
-122 -82 -219 -198 -265 -151 -59 -300 -3 -391 150 -20 35 -24 53 -24 135 0
82 3 102 25 144 31 62 111 132 170 151 55 17 151 19 204 4z m12082 0 c191 -35
311 -237 245 -416 -35 -96 -100 -160 -198 -194 -72 -25 -124 -24 -202 2 -121
41 -211 166 -211 293 0 152 114 291 257 316 27 4 48 8 49 9 0 0 27 -4 60 -10z
m-8409 -1093 c103 -57 171 -181 160 -298 -11 -118 -98 -229 -208 -267 -76 -25
-124 -26 -191 -4 -76 24 -135 71 -176 137 -36 58 -37 62 -37 160 0 89 3 106
24 141 74 123 153 167 291 162 71 -2 94 -8 137 -31z"/>
<path d="M4282 10578 l3 -2663 510 1 c323 0 558 5 640 12 841 80 1450 336
1893 797 414 429 646 997 703 1718 15 195 7 669 -15 835 -81 616 -281 1092
-619 1477 -172 196 -208 219 -455 299 -295 95 -533 141 -890 171 -145 12 -348
15 -978 15 l-794 0 2 -2662z m3374 1148 c92 -32 152 -92 190 -188 30 -77 30
-122 2 -205 -43 -125 -167 -213 -298 -213 -40 0 -71 9 -126 35 -80 39 -129 89
-158 164 -20 52 -23 149 -7 208 21 77 110 171 187 198 51 18 161 19 210 1z
m-2150 -2096 c165 -56 251 -232 194 -399 -36 -109 -93 -179 -185 -229 -43 -23
-62 -27 -135 -27 -100 0 -150 20 -222 88 -59 58 -81 106 -86 199 -5 93 13 160
65 232 97 136 227 184 369 136z"/>
<path d="M14207 12163 c-3 -5 -32 -80 -65 -168 -33 -88 -164 -437 -292 -775
-603 -1597 -640 -1697 -640 -1710 0 -6 338 -10 1005 -10 553 0 1005 3 1005 6
0 6 -193 520 -590 1569 -115 303 -254 671 -310 820 -56 148 -103 271 -105 273
-2 2 -5 0 -8 -5z m145 -1934 c88 -44 158 -156 166 -262 10 -126 -80 -260 -205
-305 -62 -23 -150 -29 -181 -13 -9 5 -32 15 -49 21 -18 7 -33 16 -33 20 0 8
60 176 79 220 5 14 27 70 47 125 80 219 83 226 113 219 14 -4 43 -15 63 -25z"/>
</g>
</svg>
